<mxfile host="app.diagrams.net" modified="2023-10-17T04:21:28.628Z" agent="Mozilla/5.0 (Windows NT 10.0; Win64; x64) AppleWebKit/537.36 (KHTML, like Gecko) Chrome/118.0.0.0 Safari/537.36" etag="9lnaOUGHCBcRZWGSjCoe" version="22.0.4" type="device">
  <diagram name="PÃ¡gina-1" id="U54emN4PiZG_W_pOGegN">
    <mxGraphModel dx="1480" dy="789" grid="1" gridSize="10" guides="1" tooltips="1" connect="1" arrows="1" fold="1" page="1" pageScale="1" pageWidth="1169" pageHeight="827" math="0" shadow="0">
      <root>
        <mxCell id="0" />
        <mxCell id="1" parent="0" />
        <mxCell id="TnjEVUTEEqubb7SxHWFd-14" value="" style="rounded=0;whiteSpace=wrap;html=1;align=left;" vertex="1" parent="1">
          <mxGeometry x="830" y="198" width="250" height="110" as="geometry" />
        </mxCell>
        <mxCell id="TnjEVUTEEqubb7SxHWFd-2" value="backend-producer" style="sketch=0;html=1;dashed=0;whitespace=wrap;fillColor=#2875E2;strokeColor=#ffffff;points=[[0.005,0.63,0],[0.1,0.2,0],[0.9,0.2,0],[0.5,0,0],[0.995,0.63,0],[0.72,0.99,0],[0.5,1,0],[0.28,0.99,0]];verticalLabelPosition=bottom;align=center;verticalAlign=top;shape=mxgraph.kubernetes.icon;prIcon=pod" vertex="1" parent="1">
          <mxGeometry x="360" y="400" width="50" height="50" as="geometry" />
        </mxCell>
        <mxCell id="TnjEVUTEEqubb7SxHWFd-3" value="database" style="sketch=0;html=1;dashed=0;whitespace=wrap;fillColor=#2875E2;strokeColor=#ffffff;points=[[0.005,0.63,0],[0.1,0.2,0],[0.9,0.2,0],[0.5,0,0],[0.995,0.63,0],[0.72,0.99,0],[0.5,1,0],[0.28,0.99,0]];verticalLabelPosition=bottom;align=center;verticalAlign=top;shape=mxgraph.kubernetes.icon;prIcon=pod" vertex="1" parent="1">
          <mxGeometry x="615" y="238" width="50" height="50" as="geometry" />
        </mxCell>
        <mxCell id="TnjEVUTEEqubb7SxHWFd-4" value="rabbitmq" style="sketch=0;html=1;dashed=0;whitespace=wrap;fillColor=#2875E2;strokeColor=#ffffff;points=[[0.005,0.63,0],[0.1,0.2,0],[0.9,0.2,0],[0.5,0,0],[0.995,0.63,0],[0.72,0.99,0],[0.5,1,0],[0.28,0.99,0]];verticalLabelPosition=bottom;align=center;verticalAlign=top;shape=mxgraph.kubernetes.icon;prIcon=pod" vertex="1" parent="1">
          <mxGeometry x="990" y="470" width="50" height="50" as="geometry" />
        </mxCell>
        <mxCell id="TnjEVUTEEqubb7SxHWFd-5" value="seqlog" style="sketch=0;html=1;dashed=0;whitespace=wrap;fillColor=#2875E2;strokeColor=#ffffff;points=[[0.005,0.63,0],[0.1,0.2,0],[0.9,0.2,0],[0.5,0,0],[0.995,0.63,0],[0.72,0.99,0],[0.5,1,0],[0.28,0.99,0]];verticalLabelPosition=bottom;align=center;verticalAlign=top;shape=mxgraph.kubernetes.icon;prIcon=pod" vertex="1" parent="1">
          <mxGeometry x="535" y="540" width="50" height="50" as="geometry" />
        </mxCell>
        <mxCell id="TnjEVUTEEqubb7SxHWFd-6" value="backend-consumer" style="sketch=0;html=1;dashed=0;whitespace=wrap;fillColor=#2875E2;strokeColor=#ffffff;points=[[0.005,0.63,0],[0.1,0.2,0],[0.9,0.2,0],[0.5,0,0],[0.995,0.63,0],[0.72,0.99,0],[0.5,1,0],[0.28,0.99,0]];verticalLabelPosition=bottom;align=center;verticalAlign=top;shape=mxgraph.kubernetes.icon;prIcon=pod" vertex="1" parent="1">
          <mxGeometry x="880" y="218" width="50" height="50" as="geometry" />
        </mxCell>
        <mxCell id="TnjEVUTEEqubb7SxHWFd-21" style="edgeStyle=orthogonalEdgeStyle;rounded=0;orthogonalLoop=1;jettySize=auto;html=1;" edge="1" parent="1" source="TnjEVUTEEqubb7SxHWFd-7" target="TnjEVUTEEqubb7SxHWFd-8">
          <mxGeometry relative="1" as="geometry" />
        </mxCell>
        <mxCell id="TnjEVUTEEqubb7SxHWFd-7" value="NodePort :30050" style="sketch=0;html=1;dashed=0;whitespace=wrap;fillColor=#2875E2;strokeColor=#ffffff;points=[[0.005,0.63,0],[0.1,0.2,0],[0.9,0.2,0],[0.5,0,0],[0.995,0.63,0],[0.72,0.99,0],[0.5,1,0],[0.28,0.99,0]];verticalLabelPosition=bottom;align=center;verticalAlign=top;shape=mxgraph.kubernetes.icon;prIcon=svc" vertex="1" parent="1">
          <mxGeometry x="120" y="152" width="50" height="48" as="geometry" />
        </mxCell>
        <mxCell id="TnjEVUTEEqubb7SxHWFd-8" value="frontend" style="sketch=0;html=1;dashed=0;whitespace=wrap;fillColor=#2875E2;strokeColor=#ffffff;points=[[0.005,0.63,0],[0.1,0.2,0],[0.9,0.2,0],[0.5,0,0],[0.995,0.63,0],[0.72,0.99,0],[0.5,1,0],[0.28,0.99,0]];verticalLabelPosition=bottom;align=center;verticalAlign=top;shape=mxgraph.kubernetes.icon;prIcon=pod" vertex="1" parent="1">
          <mxGeometry x="350" y="200" width="50" height="50" as="geometry" />
        </mxCell>
        <mxCell id="TnjEVUTEEqubb7SxHWFd-9" value="NodePort:30010" style="sketch=0;html=1;dashed=0;whitespace=wrap;fillColor=#2875E2;strokeColor=#ffffff;points=[[0.005,0.63,0],[0.1,0.2,0],[0.9,0.2,0],[0.5,0,0],[0.995,0.63,0],[0.72,0.99,0],[0.5,1,0],[0.28,0.99,0]];verticalLabelPosition=bottom;align=center;verticalAlign=top;shape=mxgraph.kubernetes.icon;prIcon=svc" vertex="1" parent="1">
          <mxGeometry x="120" y="340" width="50" height="48" as="geometry" />
        </mxCell>
        <mxCell id="TnjEVUTEEqubb7SxHWFd-11" value="ClusterIp" style="sketch=0;html=1;dashed=0;whitespace=wrap;fillColor=#2875E2;strokeColor=#ffffff;points=[[0.005,0.63,0],[0.1,0.2,0],[0.9,0.2,0],[0.5,0,0],[0.995,0.63,0],[0.72,0.99,0],[0.5,1,0],[0.28,0.99,0]];verticalLabelPosition=bottom;align=center;verticalAlign=top;shape=mxgraph.kubernetes.icon;prIcon=svc" vertex="1" parent="1">
          <mxGeometry x="540" y="240" width="50" height="48" as="geometry" />
        </mxCell>
        <mxCell id="TnjEVUTEEqubb7SxHWFd-19" style="edgeStyle=orthogonalEdgeStyle;rounded=0;orthogonalLoop=1;jettySize=auto;html=1;entryX=0.5;entryY=1;entryDx=0;entryDy=0;" edge="1" parent="1" source="TnjEVUTEEqubb7SxHWFd-12" target="TnjEVUTEEqubb7SxHWFd-14">
          <mxGeometry relative="1" as="geometry" />
        </mxCell>
        <mxCell id="TnjEVUTEEqubb7SxHWFd-20" value="Consumer" style="edgeLabel;html=1;align=center;verticalAlign=middle;resizable=0;points=[];" vertex="1" connectable="0" parent="TnjEVUTEEqubb7SxHWFd-19">
          <mxGeometry x="0.0255" y="-2" relative="1" as="geometry">
            <mxPoint as="offset" />
          </mxGeometry>
        </mxCell>
        <mxCell id="TnjEVUTEEqubb7SxHWFd-12" value="ClusterIp" style="sketch=0;html=1;dashed=0;whitespace=wrap;fillColor=#2875E2;strokeColor=#ffffff;points=[[0.005,0.63,0],[0.1,0.2,0],[0.9,0.2,0],[0.5,0,0],[0.995,0.63,0],[0.72,0.99,0],[0.5,1,0],[0.28,0.99,0]];verticalLabelPosition=bottom;align=center;verticalAlign=top;shape=mxgraph.kubernetes.icon;prIcon=svc" vertex="1" parent="1">
          <mxGeometry x="930" y="380" width="50" height="48" as="geometry" />
        </mxCell>
        <mxCell id="TnjEVUTEEqubb7SxHWFd-32" style="edgeStyle=orthogonalEdgeStyle;rounded=0;orthogonalLoop=1;jettySize=auto;html=1;" edge="1" parent="1" source="TnjEVUTEEqubb7SxHWFd-13" target="TnjEVUTEEqubb7SxHWFd-5">
          <mxGeometry relative="1" as="geometry" />
        </mxCell>
        <mxCell id="TnjEVUTEEqubb7SxHWFd-13" value="ClusterIp" style="sketch=0;html=1;dashed=0;whitespace=wrap;fillColor=#2875E2;strokeColor=#ffffff;points=[[0.005,0.63,0],[0.1,0.2,0],[0.9,0.2,0],[0.5,0,0],[0.995,0.63,0],[0.72,0.99,0],[0.5,1,0],[0.28,0.99,0]];verticalLabelPosition=bottom;align=center;verticalAlign=top;shape=mxgraph.kubernetes.icon;prIcon=svc" vertex="1" parent="1">
          <mxGeometry x="465" y="430" width="50" height="48" as="geometry" />
        </mxCell>
        <mxCell id="TnjEVUTEEqubb7SxHWFd-15" value="Replicas" style="text;html=1;align=center;verticalAlign=middle;resizable=0;points=[];autosize=1;strokeColor=none;fillColor=none;" vertex="1" parent="1">
          <mxGeometry x="820" y="170" width="70" height="30" as="geometry" />
        </mxCell>
        <mxCell id="TnjEVUTEEqubb7SxHWFd-16" value="backend-consumer" style="sketch=0;html=1;dashed=0;whitespace=wrap;fillColor=#2875E2;strokeColor=#ffffff;points=[[0.005,0.63,0],[0.1,0.2,0],[0.9,0.2,0],[0.5,0,0],[0.995,0.63,0],[0.72,0.99,0],[0.5,1,0],[0.28,0.99,0]];verticalLabelPosition=bottom;align=center;verticalAlign=top;shape=mxgraph.kubernetes.icon;prIcon=pod" vertex="1" parent="1">
          <mxGeometry x="990" y="218" width="50" height="50" as="geometry" />
        </mxCell>
        <mxCell id="TnjEVUTEEqubb7SxHWFd-18" style="edgeStyle=orthogonalEdgeStyle;rounded=0;orthogonalLoop=1;jettySize=auto;html=1;entryX=0.5;entryY=0;entryDx=0;entryDy=0;entryPerimeter=0;exitX=0.995;exitY=0.63;exitDx=0;exitDy=0;exitPerimeter=0;" edge="1" parent="1" source="TnjEVUTEEqubb7SxHWFd-12" target="TnjEVUTEEqubb7SxHWFd-4">
          <mxGeometry relative="1" as="geometry" />
        </mxCell>
        <mxCell id="TnjEVUTEEqubb7SxHWFd-22" style="edgeStyle=orthogonalEdgeStyle;rounded=0;orthogonalLoop=1;jettySize=auto;html=1;entryX=0.005;entryY=0.63;entryDx=0;entryDy=0;entryPerimeter=0;exitX=0.995;exitY=0.63;exitDx=0;exitDy=0;exitPerimeter=0;" edge="1" parent="1" source="TnjEVUTEEqubb7SxHWFd-9" target="TnjEVUTEEqubb7SxHWFd-2">
          <mxGeometry relative="1" as="geometry" />
        </mxCell>
        <mxCell id="TnjEVUTEEqubb7SxHWFd-24" style="edgeStyle=orthogonalEdgeStyle;rounded=0;orthogonalLoop=1;jettySize=auto;html=1;entryX=0.5;entryY=0;entryDx=0;entryDy=0;entryPerimeter=0;" edge="1" parent="1" source="TnjEVUTEEqubb7SxHWFd-14" target="TnjEVUTEEqubb7SxHWFd-11">
          <mxGeometry relative="1" as="geometry">
            <Array as="points">
              <mxPoint x="565" y="213" />
            </Array>
          </mxGeometry>
        </mxCell>
        <mxCell id="TnjEVUTEEqubb7SxHWFd-27" style="edgeStyle=orthogonalEdgeStyle;rounded=0;orthogonalLoop=1;jettySize=auto;html=1;entryX=0.18;entryY=0.536;entryDx=0;entryDy=0;entryPerimeter=0;" edge="1" parent="1" source="TnjEVUTEEqubb7SxHWFd-11" target="TnjEVUTEEqubb7SxHWFd-3">
          <mxGeometry relative="1" as="geometry" />
        </mxCell>
        <mxCell id="TnjEVUTEEqubb7SxHWFd-29" style="edgeStyle=orthogonalEdgeStyle;rounded=0;orthogonalLoop=1;jettySize=auto;html=1;entryX=0.5;entryY=0;entryDx=0;entryDy=0;entryPerimeter=0;exitX=0.28;exitY=0.99;exitDx=0;exitDy=0;exitPerimeter=0;" edge="1" parent="1" source="TnjEVUTEEqubb7SxHWFd-8" target="TnjEVUTEEqubb7SxHWFd-9">
          <mxGeometry relative="1" as="geometry">
            <mxPoint x="310" y="190" as="sourcePoint" />
            <Array as="points">
              <mxPoint x="350" y="250" />
              <mxPoint x="205" y="250" />
            </Array>
          </mxGeometry>
        </mxCell>
        <mxCell id="TnjEVUTEEqubb7SxHWFd-30" style="edgeStyle=orthogonalEdgeStyle;rounded=0;orthogonalLoop=1;jettySize=auto;html=1;entryX=0.005;entryY=0.63;entryDx=0;entryDy=0;entryPerimeter=0;exitX=0.5;exitY=0;exitDx=0;exitDy=0;exitPerimeter=0;" edge="1" parent="1" source="TnjEVUTEEqubb7SxHWFd-2" target="TnjEVUTEEqubb7SxHWFd-11">
          <mxGeometry relative="1" as="geometry">
            <Array as="points">
              <mxPoint x="450" y="300" />
              <mxPoint x="450" y="270" />
            </Array>
          </mxGeometry>
        </mxCell>
        <mxCell id="TnjEVUTEEqubb7SxHWFd-33" style="edgeStyle=orthogonalEdgeStyle;rounded=0;orthogonalLoop=1;jettySize=auto;html=1;entryX=0.005;entryY=0.63;entryDx=0;entryDy=0;entryPerimeter=0;exitX=0.9;exitY=0.2;exitDx=0;exitDy=0;exitPerimeter=0;" edge="1" parent="1" source="TnjEVUTEEqubb7SxHWFd-2" target="TnjEVUTEEqubb7SxHWFd-12">
          <mxGeometry relative="1" as="geometry" />
        </mxCell>
        <mxCell id="TnjEVUTEEqubb7SxHWFd-34" value="NodePort:30030" style="sketch=0;html=1;dashed=0;whitespace=wrap;fillColor=#2875E2;strokeColor=#ffffff;points=[[0.005,0.63,0],[0.1,0.2,0],[0.9,0.2,0],[0.5,0,0],[0.995,0.63,0],[0.72,0.99,0],[0.5,1,0],[0.28,0.99,0]];verticalLabelPosition=bottom;align=center;verticalAlign=top;shape=mxgraph.kubernetes.icon;prIcon=svc" vertex="1" parent="1">
          <mxGeometry x="120" y="688" width="50" height="48" as="geometry" />
        </mxCell>
        <mxCell id="TnjEVUTEEqubb7SxHWFd-35" style="edgeStyle=orthogonalEdgeStyle;rounded=0;orthogonalLoop=1;jettySize=auto;html=1;entryX=0.005;entryY=0.63;entryDx=0;entryDy=0;entryPerimeter=0;" edge="1" parent="1" source="TnjEVUTEEqubb7SxHWFd-34" target="TnjEVUTEEqubb7SxHWFd-4">
          <mxGeometry relative="1" as="geometry">
            <Array as="points">
              <mxPoint x="820" y="712" />
              <mxPoint x="820" y="502" />
            </Array>
          </mxGeometry>
        </mxCell>
        <mxCell id="TnjEVUTEEqubb7SxHWFd-36" value="NodePort:30020" style="sketch=0;html=1;dashed=0;whitespace=wrap;fillColor=#2875E2;strokeColor=#ffffff;points=[[0.005,0.63,0],[0.1,0.2,0],[0.9,0.2,0],[0.5,0,0],[0.995,0.63,0],[0.72,0.99,0],[0.5,1,0],[0.28,0.99,0]];verticalLabelPosition=bottom;align=center;verticalAlign=top;shape=mxgraph.kubernetes.icon;prIcon=svc" vertex="1" parent="1">
          <mxGeometry x="123" y="547" width="50" height="48" as="geometry" />
        </mxCell>
        <mxCell id="TnjEVUTEEqubb7SxHWFd-37" style="edgeStyle=orthogonalEdgeStyle;rounded=0;orthogonalLoop=1;jettySize=auto;html=1;entryX=0.005;entryY=0.63;entryDx=0;entryDy=0;entryPerimeter=0;" edge="1" parent="1" source="TnjEVUTEEqubb7SxHWFd-36" target="TnjEVUTEEqubb7SxHWFd-5">
          <mxGeometry relative="1" as="geometry" />
        </mxCell>
        <mxCell id="TnjEVUTEEqubb7SxHWFd-38" value="&lt;font style=&quot;font-size: 27px;&quot;&gt;Arquitetura Kubernetes&lt;/font&gt;" style="text;html=1;strokeColor=none;fillColor=none;align=left;verticalAlign=middle;whiteSpace=wrap;rounded=0;fontSize=27;fontStyle=1;fontColor=#676565;" vertex="1" parent="1">
          <mxGeometry x="80" y="50" width="310" height="40" as="geometry" />
        </mxCell>
        <mxCell id="TnjEVUTEEqubb7SxHWFd-39" style="edgeStyle=orthogonalEdgeStyle;rounded=0;orthogonalLoop=1;jettySize=auto;html=1;entryX=0.1;entryY=0.2;entryDx=0;entryDy=0;entryPerimeter=0;" edge="1" parent="1" source="TnjEVUTEEqubb7SxHWFd-2" target="TnjEVUTEEqubb7SxHWFd-13">
          <mxGeometry relative="1" as="geometry" />
        </mxCell>
        <mxCell id="TnjEVUTEEqubb7SxHWFd-40" value="&lt;font style=&quot;font-size: 18px;&quot;&gt;AplicaÃ§Ã£o Cashflow&lt;/font&gt;" style="text;html=1;strokeColor=none;fillColor=none;align=left;verticalAlign=middle;whiteSpace=wrap;rounded=0;fontSize=18;fontStyle=1;fontColor=#000000;" vertex="1" parent="1">
          <mxGeometry x="80" y="85" width="310" height="30" as="geometry" />
        </mxCell>
      </root>
    </mxGraphModel>
  </diagram>
</mxfile>
